<svg xmlns="http://www.w3.org/2000/svg" aria-label="Vite logo" viewBox="0 0 410 404">
  <path
    fill="#41D1FF"
    d="M399.641 59.524L215.346 388.545c-3.8 6.794-13.574 6.834-17.43.072L10.053 59.594c-4.106-7.192 2.077-15.981 10.217-14.53l184.415 32.928a9.994 9.994 0 0 0 3.503-.004l181.207-32.885c8.129-1.475 14.338 7.29 10.246 14.421Z"
  />
  <path
    fill="#BD34FE"
    d="M292.965.75L156.673 27.472a5 5 0 0 0-4.066 4.114l-8.392 141.63a5 5 0 0 0 6.111 5.188l37.94-8.764a5 5 0 0 1 6.006 6.159l-11.268 55.198a5 5 0 0 0 6.276 5.938l23.434-7.072a5 5 0 0 1 6.348 5.989l-17.907 86.109c-1.12 5.389 6.049 8.328 9.038 3.706L212.19 325l110.997-221.48C325.876 98.158 321.252 92 315.33 92h-39.04a5 5 0 0 1-4.857-6.185l25.468-79.266C298.802.635 296.169.122 292.965.75Z"
  />
</svg>
